<svg width="70" height="24" viewBox="0 0 70 24" fill="none" xmlns="http://www.w3.org/2000/svg">
<path d="M13.992 6.704C14.424 6.688 14.864 6.664 15.312 6.632C15.776 6.6 16.216 6.568 16.632 6.536C17.064 6.488 17.464 6.44 17.832 6.392C18.216 6.344 18.536 6.296 18.792 6.248C18.936 6.216 19.008 6.264 19.008 6.392L18.96 7.952C18.96 8.064 18.904 8.12 18.792 8.12C18.472 8.12 18.104 8.12 17.688 8.12C17.288 8.12 16.872 8.12 16.44 8.12C16.024 8.12 15.608 8.128 15.192 8.144C14.776 8.144 14.392 8.144 14.04 8.144L13.44 8.168L13.368 10.208C13.352 10.448 13.328 10.696 13.296 10.952C13.264 11.208 13.216 11.44 13.152 11.648C14.064 11.616 14.928 11.584 15.744 11.552C16.56 11.52 17.28 11.48 17.904 11.432C18.624 11.384 19.36 11.328 20.112 11.264C20.88 11.184 21.624 11.08 22.344 10.952C22.488 10.936 22.56 10.992 22.56 11.12L22.512 12.848C22.512 12.96 22.456 13.016 22.344 13.016C21.528 12.984 20.752 12.96 20.016 12.944C19.28 12.928 18.56 12.92 17.856 12.92C15.584 12.936 13.552 12.96 11.76 12.992C9.984 13.024 8.32 13.064 6.768 13.112C6.528 13.112 6.256 13.12 5.952 13.136C5.648 13.152 5.328 13.184 4.992 13.232C4.656 13.264 4.32 13.312 3.984 13.376C3.648 13.44 3.336 13.52 3.048 13.616C2.808 13.552 2.56 13.448 2.304 13.304C2.064 13.16 1.832 13 1.608 12.824C1.384 12.632 1.184 12.432 1.008 12.224C0.832 12.016 0.696 11.824 0.6 11.648L0.984 11.216C1.672 11.392 2.408 11.512 3.192 11.576C3.992 11.64 4.8 11.68 5.616 11.696C6.32 11.712 7.112 11.72 7.992 11.72C8.888 11.72 9.816 11.712 10.776 11.696L10.584 8.216L6.72 8.264C6.336 8.264 5.968 8.104 5.616 7.784C5.264 7.448 5.088 6.96 5.088 6.32V4.232C5.088 3.928 5.072 3.672 5.04 3.464C5.008 3.256 4.944 3.08 4.848 2.936C4.752 2.792 4.6 2.672 4.392 2.576C4.184 2.464 3.904 2.344 3.552 2.216L3.744 1.544C4.16 1.544 4.576 1.568 4.992 1.616C5.408 1.648 5.8 1.704 6.168 1.784C6.552 1.848 6.896 1.928 7.2 2.024C7.52 2.104 7.784 2.2 7.992 2.312C8.024 2.344 8.056 2.376 8.088 2.408C8.12 2.424 8.128 2.472 8.112 2.552C8.08 2.92 8.056 3.272 8.04 3.608C8.04 3.944 8.04 4.248 8.04 4.52V5.984C8.04 6.256 8.088 6.456 8.184 6.584C8.28 6.696 8.464 6.768 8.736 6.8C9.248 6.8 9.712 6.808 10.128 6.824C10.544 6.824 10.952 6.824 11.352 6.824C11.752 6.808 12.16 6.792 12.576 6.776C12.992 6.76 13.464 6.736 13.992 6.704ZM18.672 20.288C18.656 20.944 18.528 21.528 18.288 22.04C18.064 22.568 17.8 22.968 17.496 23.24C17.384 23.304 17.192 23.352 16.92 23.384C16.664 23.432 16.464 23.448 16.32 23.432C16.288 23.368 16.24 23.248 16.176 23.072C16.128 22.912 16.072 22.712 16.008 22.472C15.96 22.232 15.912 21.968 15.864 21.68C15.816 21.408 15.792 21.12 15.792 20.816L15.72 17.312C15.72 17.152 15.64 17.072 15.48 17.072C14.968 17.088 14.416 17.104 13.824 17.12C13.248 17.12 12.664 17.128 12.072 17.144C11.48 17.16 10.904 17.184 10.344 17.216C9.8 17.232 9.312 17.248 8.88 17.264C8.416 17.296 7.936 17.352 7.44 17.432C6.96 17.496 6.568 17.592 6.264 17.72C6.12 17.688 5.936 17.616 5.712 17.504C5.504 17.392 5.296 17.256 5.088 17.096C4.88 16.936 4.688 16.76 4.512 16.568C4.336 16.376 4.208 16.184 4.128 15.992L4.488 15.56C4.632 15.608 4.824 15.656 5.064 15.704C5.304 15.736 5.576 15.768 5.88 15.8C6.184 15.816 6.496 15.832 6.816 15.848C7.136 15.864 7.448 15.872 7.752 15.872C8.216 15.872 8.728 15.872 9.288 15.872C9.848 15.872 10.408 15.872 10.968 15.872C11.544 15.856 12.104 15.84 12.648 15.824C13.192 15.808 13.696 15.784 14.16 15.752C14.56 15.72 14.864 15.688 15.072 15.656C15.296 15.608 15.488 15.544 15.648 15.464C15.776 15.448 15.976 15.432 16.248 15.416C16.52 15.4 16.808 15.4 17.112 15.416C17.416 15.416 17.704 15.424 17.976 15.44C18.264 15.456 18.48 15.48 18.624 15.512C18.736 15.528 18.792 15.6 18.792 15.728C18.792 15.808 18.784 15.928 18.768 16.088C18.768 16.232 18.76 16.4 18.744 16.592C18.744 16.784 18.736 16.984 18.72 17.192C18.72 17.4 18.72 17.584 18.72 17.744L18.672 20.288ZM39.4014 3.632C39.4014 3.328 39.3614 3.064 39.2814 2.84C39.2174 2.6 39.1054 2.4 38.9454 2.24C38.8014 2.064 38.5934 1.92 38.3214 1.808C38.0494 1.68 37.7134 1.568 37.3134 1.472L37.5294 0.751999C37.9134 0.751999 38.3454 0.775999 38.8254 0.823999C39.3214 0.871999 39.7934 0.935999 40.2414 1.016C40.7054 1.096 41.1214 1.192 41.4894 1.304C41.8734 1.416 42.1614 1.528 42.3534 1.64C42.4334 1.688 42.4654 1.76 42.4494 1.856C42.3854 2.192 42.3454 2.568 42.3294 2.984C42.3134 3.4 42.3054 3.744 42.3054 4.016L42.2814 10.688C42.9854 10.624 43.6574 10.536 44.2974 10.424C44.9534 10.312 45.5854 10.176 46.1934 10.016C46.2734 10 46.3294 10.016 46.3614 10.064C46.4094 10.096 46.4334 10.136 46.4334 10.184L46.3614 12.032C46.3614 12.144 46.3054 12.2 46.1934 12.2C45.5054 12.184 44.8254 12.168 44.1534 12.152C43.4974 12.12 42.8734 12.096 42.2814 12.08L42.2574 18.584C42.2094 19.496 42.0654 20.296 41.8254 20.984C41.6014 21.672 41.3374 22.184 41.0334 22.52C40.9054 22.6 40.7294 22.656 40.5054 22.688C40.2814 22.736 40.1054 22.752 39.9774 22.736C39.9134 22.592 39.8494 22.376 39.7854 22.088C39.7214 21.816 39.6574 21.496 39.5934 21.128C39.5454 20.776 39.5054 20.392 39.4734 19.976C39.4414 19.56 39.4254 19.152 39.4254 18.752L39.4014 3.632ZM25.0974 6.128C25.4014 6.208 25.8174 6.28 26.3454 6.344C26.8734 6.392 27.5134 6.424 28.2654 6.44C28.8414 6.456 29.5214 6.456 30.3054 6.44C31.1054 6.424 31.9214 6.4 32.7534 6.368C33.6014 6.32 34.4254 6.264 35.2254 6.2C36.0254 6.136 36.7294 6.056 37.3374 5.96C37.4654 5.928 37.5294 5.976 37.5294 6.104L37.4814 7.568C37.4814 7.68 37.4334 7.736 37.3374 7.736C36.8574 7.72 36.2254 7.712 35.4414 7.712C34.6734 7.696 33.8894 7.688 33.0894 7.688C33.0094 8.36 32.8734 9.016 32.6814 9.656C32.5054 10.296 32.2734 10.904 31.9854 11.48C32.4814 11.624 33.0414 11.816 33.6654 12.056C34.3054 12.296 34.9054 12.592 35.4654 12.944C36.0254 13.28 36.4894 13.664 36.8574 14.096C37.2414 14.528 37.4334 15.008 37.4334 15.536C37.4334 15.824 37.3774 16.072 37.2654 16.28C37.1694 16.488 37.0334 16.664 36.8574 16.808C36.6814 16.936 36.4814 17.024 36.2574 17.072C36.0334 17.104 35.8094 17.08 35.5854 17C35.1214 16.264 34.5614 15.472 33.9054 14.624C33.2654 13.76 32.5374 12.888 31.7214 12.008C31.3214 12.744 30.8574 13.424 30.3294 14.048C29.8174 14.672 29.2654 15.232 28.6734 15.728C28.0814 16.208 27.4654 16.624 26.8254 16.976C26.1854 17.328 25.5454 17.6 24.9054 17.792L24.4734 17.36C25.0654 16.88 25.6574 16.304 26.2494 15.632C26.8574 14.96 27.4094 14.208 27.9054 13.376C28.4174 12.544 28.8494 11.656 29.2014 10.712C29.5534 9.752 29.7774 8.752 29.8734 7.712C29.2494 7.744 28.6574 7.792 28.0974 7.856C27.5374 7.92 27.1214 8.008 26.8494 8.12C26.7054 8.104 26.5294 8.04 26.3214 7.928C26.1294 7.816 25.9294 7.688 25.7214 7.544C25.5294 7.384 25.3454 7.208 25.1694 7.016C24.9934 6.824 24.8654 6.64 24.7854 6.464L25.0974 6.128ZM27.5934 1.976C28.3294 2.2 29.1214 2.36 29.9694 2.456C30.8334 2.552 31.6974 2.6 32.5614 2.6C32.9454 2.6 33.3214 2.592 33.6894 2.576C34.0734 2.544 34.4494 2.512 34.8174 2.48C35.0094 2.608 35.1054 2.824 35.1054 3.128C35.0894 3.4 35.0014 3.632 34.8414 3.824C34.6814 4.016 34.4734 4.176 34.2174 4.304C33.9774 4.416 33.6894 4.496 33.3534 4.544C33.0334 4.592 32.7054 4.616 32.3694 4.616C31.3774 4.616 30.4254 4.432 29.5134 4.064C28.6174 3.68 27.8894 3.112 27.3294 2.36L27.5934 1.976ZM56.0631 9.032C56.5911 9.032 57.0711 9.04 57.5031 9.056C57.9511 9.056 58.3911 9.056 58.8231 9.056C59.2551 9.04 59.6951 9.032 60.1431 9.032C60.5911 9.016 61.0791 8.992 61.6071 8.96C61.8951 8.944 62.2071 8.928 62.5431 8.912C62.8951 8.896 63.2471 8.872 63.5991 8.84C63.9511 8.808 64.2871 8.776 64.6071 8.744C64.9431 8.712 65.2311 8.672 65.4711 8.624C65.6311 8.592 65.7111 8.64 65.7111 8.768L65.6631 10.088C65.6631 10.216 65.6071 10.28 65.4951 10.28C64.8391 10.28 64.1191 10.288 63.3351 10.304C62.5671 10.304 61.8311 10.312 61.1271 10.328C60.9991 10.328 60.8631 10.336 60.7191 10.352C60.5911 10.352 60.4631 10.352 60.3351 10.352L60.2871 11.624C60.2711 11.848 60.2471 12.08 60.2151 12.32C60.1831 12.544 60.1511 12.752 60.1191 12.944C61.0311 12.912 61.9031 12.88 62.7351 12.848C63.5671 12.816 64.3031 12.776 64.9431 12.728C65.6631 12.68 66.3991 12.624 67.1511 12.56C67.9191 12.48 68.6631 12.376 69.3831 12.248C69.5271 12.232 69.5991 12.288 69.5991 12.416L69.5511 14.144C69.5511 14.256 69.4951 14.312 69.3831 14.312C68.5671 14.28 67.7911 14.256 67.0551 14.24C66.3191 14.224 65.5991 14.216 64.8951 14.216C62.6231 14.232 60.5911 14.256 58.7991 14.288C57.0231 14.32 55.3591 14.36 53.8071 14.408C53.5671 14.408 53.2951 14.416 52.9911 14.432C52.6871 14.448 52.3671 14.48 52.0311 14.528C51.6951 14.56 51.3591 14.608 51.0231 14.672C50.6871 14.736 50.3751 14.816 50.0871 14.912C49.8471 14.848 49.5991 14.744 49.3431 14.6C49.1031 14.456 48.8711 14.296 48.6471 14.12C48.4231 13.928 48.2231 13.728 48.0471 13.52C47.8711 13.312 47.7351 13.12 47.6391 12.944L48.0231 12.512C48.7111 12.688 49.4471 12.808 50.2311 12.872C51.0311 12.936 51.8391 12.976 52.6551 12.992C53.3431 13.008 54.1191 13.016 54.9831 13.016C55.8471 13.016 56.7511 13.008 57.6951 12.992L57.5271 10.376C56.9511 10.392 56.3751 10.4 55.7991 10.4C55.2391 10.4 54.6871 10.4 54.1431 10.4C53.6471 10.384 53.2391 10.2 52.9191 9.848C52.6151 9.48 52.4631 9.032 52.4631 8.504V7.232C52.4631 7.04 52.4551 6.872 52.4391 6.728C52.4391 6.568 52.3991 6.432 52.3191 6.32C52.2551 6.208 52.1431 6.112 51.9831 6.032C51.8231 5.952 51.5991 5.888 51.3111 5.84L51.4311 5.216C51.6391 5.216 51.9031 5.224 52.2231 5.24C52.5591 5.24 52.9031 5.248 53.2551 5.264C53.6071 5.28 53.9431 5.304 54.2631 5.336C54.5991 5.352 54.8631 5.376 55.0551 5.408C55.5511 5.408 56.1031 5.408 56.7111 5.408C57.3191 5.392 57.9431 5.376 58.5831 5.36C59.2391 5.344 59.8951 5.328 60.5511 5.312C61.2071 5.296 61.8231 5.272 62.3991 5.24V3.176C62.3991 3.048 62.3431 2.984 62.2311 2.984C61.6551 2.984 61.0951 2.992 60.5511 3.008C60.0231 3.008 59.4951 3.016 58.9671 3.032C58.4391 3.032 57.9031 3.04 57.3591 3.056C56.8151 3.056 56.2311 3.064 55.6071 3.08C55.1271 3.096 54.7191 3.128 54.3831 3.176C54.0631 3.224 53.7591 3.288 53.4711 3.368C53.3431 3.336 53.1831 3.272 52.9911 3.176C52.8151 3.064 52.6311 2.936 52.4391 2.792C52.2631 2.632 52.0951 2.472 51.9351 2.312C51.7911 2.136 51.6871 1.976 51.6231 1.832L51.9351 1.496C52.2231 1.576 52.6471 1.648 53.2071 1.712C53.7831 1.776 54.3671 1.808 54.9591 1.808C55.3911 1.808 55.8551 1.808 56.3511 1.808C56.8631 1.808 57.3751 1.808 57.8871 1.808C58.4151 1.792 58.9351 1.784 59.4471 1.784C59.9591 1.768 60.4391 1.752 60.8871 1.736C61.3031 1.72 61.6471 1.688 61.9191 1.64C62.1911 1.592 62.4151 1.528 62.5911 1.448C63.0551 1.416 63.5271 1.408 64.0071 1.424C64.5031 1.44 64.9511 1.488 65.3511 1.568C65.4791 1.6 65.5271 1.68 65.4951 1.808C65.4151 2.304 65.3431 2.736 65.2791 3.104C65.2151 3.456 65.1671 3.728 65.1351 3.92C65.0871 4.16 65.0151 4.384 64.9191 4.592C64.8231 4.784 64.7191 4.96 64.6071 5.12C64.7031 5.12 64.7911 5.12 64.8711 5.12C64.9511 5.104 65.0311 5.088 65.1111 5.072C65.2391 5.056 65.3031 5.104 65.3031 5.216L65.2551 6.44C65.2551 6.536 65.1991 6.584 65.0871 6.584C64.5751 6.584 63.9271 6.592 63.1431 6.608C62.3591 6.608 61.5191 6.616 60.6231 6.632C59.7431 6.632 58.8391 6.64 57.9111 6.656C56.9991 6.656 56.1431 6.664 55.3431 6.68V8.096C55.3431 8.464 55.4071 8.712 55.5351 8.84C55.6631 8.968 55.8391 9.032 56.0631 9.032ZM65.7111 20.288C65.6951 20.944 65.5671 21.528 65.3271 22.04C65.1031 22.568 64.8391 22.968 64.5351 23.24C64.4231 23.304 64.2311 23.352 63.9591 23.384C63.7031 23.432 63.5031 23.448 63.3591 23.432C63.3271 23.368 63.2791 23.248 63.2151 23.072C63.1671 22.912 63.1111 22.712 63.0471 22.472C62.9991 22.232 62.9511 21.968 62.9031 21.68C62.8551 21.408 62.8311 21.12 62.8311 20.816L62.7591 18.056C62.7591 17.896 62.6791 17.816 62.5191 17.816C62.0071 17.832 61.4551 17.848 60.8631 17.864C60.2871 17.864 59.7031 17.872 59.1111 17.888C58.5191 17.904 57.9431 17.928 57.3831 17.96C56.8391 17.976 56.3511 17.992 55.9191 18.008C55.4551 18.04 54.9751 18.096 54.4791 18.176C53.9991 18.24 53.6071 18.336 53.3031 18.464C53.1591 18.432 52.9751 18.36 52.7511 18.248C52.5431 18.136 52.3351 18 52.1271 17.84C51.9191 17.68 51.7271 17.504 51.5511 17.312C51.3751 17.12 51.2471 16.928 51.1671 16.736L51.5271 16.304C51.6711 16.352 51.8631 16.4 52.1031 16.448C52.3431 16.48 52.6151 16.512 52.9191 16.544C53.2231 16.56 53.5351 16.576 53.8551 16.592C54.1751 16.608 54.4871 16.616 54.7911 16.616C55.2551 16.616 55.7671 16.616 56.3271 16.616C56.8871 16.616 57.4471 16.616 58.0071 16.616C58.5831 16.6 59.1431 16.584 59.6871 16.568C60.2311 16.552 60.7351 16.528 61.1991 16.496C61.5991 16.464 61.9031 16.432 62.1111 16.4C62.3351 16.352 62.5271 16.288 62.6871 16.208C62.8151 16.192 63.0151 16.176 63.2871 16.16C63.5591 16.144 63.8471 16.144 64.1511 16.16C64.4551 16.16 64.7431 16.168 65.0151 16.184C65.3031 16.2 65.5191 16.224 65.6631 16.256C65.7751 16.272 65.8311 16.344 65.8311 16.472C65.8311 16.552 65.8231 16.672 65.8071 16.832C65.8071 16.976 65.7991 17.144 65.7831 17.336C65.7831 17.528 65.7751 17.728 65.7591 17.936C65.7591 18.144 65.7591 18.328 65.7591 18.488L65.7111 20.288Z" fill="#505051"/>
</svg>
